# xmcd
#
# Track frame offsets:
#	150
#	17864
#	32661
#	51835
#	68174
#	81024
#	100376
#	116637
#	131885
#	146915
#	159992
#	176929
#	194739
#	211264
#	231412
#	247426
#	262390
#	283412
#	298211
#
# Disc length: 4207 seconds
#
# Revision: 0
# Processed by: cddbd v1.5.1PL2 Copyright (c) Steve Scherf et al.
# Submitted via: EasyCDDAExtractor 9.1.3.1
#
DISCID=45106d13
DTITLE=Various Artist - Dream Dance 30 CD 2
DYEAR=2003
DGENRE=Trance
TTITLE0=DJ Shog - Tribute(Radio Edit)
TTITLE1=Woody Van Eyden - Unfinished Symphony(Original Radio Edit)
TTITLE2=Ayu - M(Above and Beyond Edit)
TTITLE3=Evolution - Walking On Fire(Original Short Cut)
TTITLE4=The KS feat. Robert Owens - Living a Lie(Radio Edit)
TTITLE5=Faraway Project - Without Fear(Golden Remix Radio Cut)
TTITLE6=D-Illusion - XTC and Harmony
TTITLE7=Driftwood - Anything Goes(Album Version)
TTITLE8=Y-Traxx - Mysteryland(CJ Stone's Sunset in Ibiza Mix Edit)
TTITLE9=Micro De Govia - Final Emotion(Radio Edit)
TTITLE10=Soulmate - Mamerits Of Silence(Radio Edit)
TTITLE11=Ultrabeat - Pretty Green Eyes(CJ Stone Radio Edit)
TTITLE12=Paul Oakenfold - Hypnotized(Deepsky's Radio Reaktor Remix)(Radio Edit
TTITLE12=)
TTITLE13=Duderstadt - Sunrise(Original Edit)
TTITLE14=Clockworkers - Two Worlds
TTITLE15=Modulation - Spirits(Stusnik Luna Remix Edit)
TTITLE16=Plummel - Damaged(Achillas Remix Radio Edit)
TTITLE17=Ron Van Den Barken - Keep On Movin(Timelles)(Vocal Radio Mix)
TTITLE18=Martin Eyerer - Rhythm As Such(Driftwood Mix Edit)
EXTD=
EXTT0=
EXTT1=
EXTT2=
EXTT3=
EXTT4=
EXTT5=
EXTT6=
EXTT7=
EXTT8=
EXTT9=
EXTT10=
EXTT11=
EXTT12=
EXTT13=
EXTT14=
EXTT15=
EXTT16=
EXTT17=
EXTT18=
PLAYORDER=
